<mxfile host="app.diagrams.net" modified="2024-09-13T03:43:00.698Z" agent="Mozilla/5.0 (Windows NT 10.0; Win64; x64) AppleWebKit/537.36 (KHTML, like Gecko) Chrome/128.0.0.0 Safari/537.36" etag="KUJfcKaTu9d0TBOg3ZKW" version="24.4.7" type="github">
  <diagram id="C5RBs43oDa-KdzZeNtuy" name="Page-1">
    <mxGraphModel dx="1615" dy="803" grid="1" gridSize="10" guides="1" tooltips="1" connect="1" arrows="1" fold="1" page="1" pageScale="1" pageWidth="827" pageHeight="1169" math="0" shadow="0">
      <root>
        <mxCell id="WIyWlLk6GJQsqaUBKTNV-0" />
        <mxCell id="WIyWlLk6GJQsqaUBKTNV-1" parent="WIyWlLk6GJQsqaUBKTNV-0" />
        <mxCell id="zkfFHV4jXpPFQw0GAbJ--0" value="CEO" style="swimlane;fontStyle=2;align=center;verticalAlign=top;childLayout=stackLayout;horizontal=1;startSize=26;horizontalStack=0;resizeParent=1;resizeLast=0;collapsible=1;marginBottom=0;rounded=0;shadow=0;strokeWidth=1;" parent="WIyWlLk6GJQsqaUBKTNV-1" vertex="1">
          <mxGeometry x="711" y="60" width="160" height="160" as="geometry">
            <mxRectangle x="230" y="140" width="160" height="26" as="alternateBounds" />
          </mxGeometry>
        </mxCell>
        <mxCell id="rh4BaJ5fhz4-DXqiOFQ8-86" value="&lt;font style=&quot;vertical-align: inherit;&quot;&gt;&lt;font style=&quot;vertical-align: inherit;&quot;&gt;&lt;font style=&quot;vertical-align: inherit;&quot;&gt;&lt;font style=&quot;vertical-align: inherit;&quot;&gt;&lt;font style=&quot;vertical-align: inherit;&quot;&gt;&lt;font style=&quot;vertical-align: inherit;&quot;&gt;&amp;nbsp;id. (inteiro)&lt;/font&gt;&lt;/font&gt;&lt;/font&gt;&lt;/font&gt;&lt;/font&gt;&lt;/font&gt;" style="text;html=1;align=left;verticalAlign=middle;whiteSpace=wrap;rounded=0;" vertex="1" parent="zkfFHV4jXpPFQw0GAbJ--0">
          <mxGeometry y="26" width="160" height="30" as="geometry" />
        </mxCell>
        <mxCell id="zkfFHV4jXpPFQw0GAbJ--1" value="Nome (String)" style="text;align=left;verticalAlign=top;spacingLeft=4;spacingRight=4;overflow=hidden;rotatable=0;points=[[0,0.5],[1,0.5]];portConstraint=eastwest;" parent="zkfFHV4jXpPFQw0GAbJ--0" vertex="1">
          <mxGeometry y="56" width="160" height="26" as="geometry" />
        </mxCell>
        <mxCell id="zkfFHV4jXpPFQw0GAbJ--2" value="Idade (int)" style="text;align=left;verticalAlign=top;spacingLeft=4;spacingRight=4;overflow=hidden;rotatable=0;points=[[0,0.5],[1,0.5]];portConstraint=eastwest;rounded=0;shadow=0;html=0;" parent="zkfFHV4jXpPFQw0GAbJ--0" vertex="1">
          <mxGeometry y="82" width="160" height="26" as="geometry" />
        </mxCell>
        <mxCell id="zkfFHV4jXpPFQw0GAbJ--5" value="CPNPJ empresarial (String)" style="text;align=left;verticalAlign=top;spacingLeft=4;spacingRight=4;overflow=hidden;rotatable=0;points=[[0,0.5],[1,0.5]];portConstraint=eastwest;" parent="zkfFHV4jXpPFQw0GAbJ--0" vertex="1">
          <mxGeometry y="108" width="160" height="26" as="geometry" />
        </mxCell>
        <mxCell id="zkfFHV4jXpPFQw0GAbJ--3" value="Anos Empresariais (int)" style="text;align=left;verticalAlign=top;spacingLeft=4;spacingRight=4;overflow=hidden;rotatable=0;points=[[0,0.5],[1,0.5]];portConstraint=eastwest;rounded=0;shadow=0;html=0;" parent="zkfFHV4jXpPFQw0GAbJ--0" vertex="1">
          <mxGeometry y="134" width="160" height="26" as="geometry" />
        </mxCell>
        <mxCell id="rh4BaJ5fhz4-DXqiOFQ8-32" style="edgeStyle=orthogonalEdgeStyle;rounded=0;orthogonalLoop=1;jettySize=auto;html=1;entryX=0.5;entryY=0;entryDx=0;entryDy=0;" edge="1" parent="WIyWlLk6GJQsqaUBKTNV-1" target="rh4BaJ5fhz4-DXqiOFQ8-23">
          <mxGeometry relative="1" as="geometry">
            <mxPoint x="788.9999999999995" y="479.99999999999966" as="sourcePoint" />
          </mxGeometry>
        </mxCell>
        <mxCell id="zkfFHV4jXpPFQw0GAbJ--6" value="Gerente" style="swimlane;fontStyle=0;align=center;verticalAlign=top;childLayout=stackLayout;horizontal=1;startSize=26;horizontalStack=0;resizeParent=1;resizeLast=0;collapsible=1;marginBottom=0;rounded=0;shadow=0;strokeWidth=1;" parent="WIyWlLk6GJQsqaUBKTNV-1" vertex="1">
          <mxGeometry x="711" y="267" width="160" height="212" as="geometry">
            <mxRectangle x="130" y="380" width="160" height="26" as="alternateBounds" />
          </mxGeometry>
        </mxCell>
        <mxCell id="rh4BaJ5fhz4-DXqiOFQ8-100" value="id (Inteiro)" style="text;align=left;verticalAlign=top;spacingLeft=4;spacingRight=4;overflow=hidden;rotatable=0;points=[[0,0.5],[1,0.5]];portConstraint=eastwest;" vertex="1" parent="zkfFHV4jXpPFQw0GAbJ--6">
          <mxGeometry y="26" width="160" height="26" as="geometry" />
        </mxCell>
        <mxCell id="zkfFHV4jXpPFQw0GAbJ--7" value="id (Inteiro)" style="text;align=left;verticalAlign=top;spacingLeft=4;spacingRight=4;overflow=hidden;rotatable=0;points=[[0,0.5],[1,0.5]];portConstraint=eastwest;" parent="zkfFHV4jXpPFQw0GAbJ--6" vertex="1">
          <mxGeometry y="52" width="160" height="26" as="geometry" />
        </mxCell>
        <mxCell id="zkfFHV4jXpPFQw0GAbJ--11" value="nome (String)" style="text;align=left;verticalAlign=top;spacingLeft=4;spacingRight=4;overflow=hidden;rotatable=0;points=[[0,0.5],[1,0.5]];portConstraint=eastwest;" parent="zkfFHV4jXpPFQw0GAbJ--6" vertex="1">
          <mxGeometry y="78" width="160" height="26" as="geometry" />
        </mxCell>
        <mxCell id="rh4BaJ5fhz4-DXqiOFQ8-87" value="departamento (String)" style="text;align=left;verticalAlign=top;spacingLeft=4;spacingRight=4;overflow=hidden;rotatable=0;points=[[0,0.5],[1,0.5]];portConstraint=eastwest;" vertex="1" parent="zkfFHV4jXpPFQw0GAbJ--6">
          <mxGeometry y="104" width="160" height="26" as="geometry" />
        </mxCell>
        <mxCell id="rh4BaJ5fhz4-DXqiOFQ8-88" value="equipe (Lista&lt;Função&gt;)" style="text;align=left;verticalAlign=top;spacingLeft=4;spacingRight=4;overflow=hidden;rotatable=0;points=[[0,0.5],[1,0.5]];portConstraint=eastwest;" vertex="1" parent="zkfFHV4jXpPFQw0GAbJ--6">
          <mxGeometry y="130" width="160" height="26" as="geometry" />
        </mxCell>
        <mxCell id="rh4BaJ5fhz4-DXqiOFQ8-89" value="Get Seminars Taken" style="text;align=left;verticalAlign=top;spacingLeft=4;spacingRight=4;overflow=hidden;rotatable=0;points=[[0,0.5],[1,0.5]];portConstraint=eastwest;" vertex="1" parent="zkfFHV4jXpPFQw0GAbJ--6">
          <mxGeometry y="156" width="160" height="26" as="geometry" />
        </mxCell>
        <mxCell id="zkfFHV4jXpPFQw0GAbJ--13" value="Supervisor de Vendas" style="swimlane;fontStyle=0;align=center;verticalAlign=top;childLayout=stackLayout;horizontal=1;startSize=26;horizontalStack=0;resizeParent=1;resizeLast=0;collapsible=1;marginBottom=0;rounded=0;shadow=0;strokeWidth=1;" parent="WIyWlLk6GJQsqaUBKTNV-1" vertex="1">
          <mxGeometry x="410" y="384" width="164" height="200" as="geometry">
            <mxRectangle x="340" y="380" width="170" height="26" as="alternateBounds" />
          </mxGeometry>
        </mxCell>
        <mxCell id="zkfFHV4jXpPFQw0GAbJ--14" value="idSupervisor: String&#xa;&#xa;nome: String&#xa;&#xa;equipe: List&lt;Func&gt;&#xa;&#xa;metaVendas: Float&#xa;&#xa;vendasTotais: Float" style="text;align=left;verticalAlign=top;spacingLeft=4;spacingRight=4;overflow=hidden;rotatable=0;points=[[0,0.5],[1,0.5]];portConstraint=eastwest;" parent="zkfFHV4jXpPFQw0GAbJ--13" vertex="1">
          <mxGeometry y="26" width="164" height="164" as="geometry" />
        </mxCell>
        <mxCell id="rh4BaJ5fhz4-DXqiOFQ8-104" value="" style="endArrow=none;html=1;rounded=0;entryX=0.25;entryY=1;entryDx=0;entryDy=0;" edge="1" parent="zkfFHV4jXpPFQw0GAbJ--13" target="zkfFHV4jXpPFQw0GAbJ--13">
          <mxGeometry width="50" height="50" relative="1" as="geometry">
            <mxPoint x="-20" y="235" as="sourcePoint" />
            <mxPoint x="30" y="196" as="targetPoint" />
          </mxGeometry>
        </mxCell>
        <mxCell id="zkfFHV4jXpPFQw0GAbJ--17" value="Super - Sistema" style="swimlane;fontStyle=0;align=center;verticalAlign=top;childLayout=stackLayout;horizontal=1;startSize=26;horizontalStack=0;resizeParent=1;resizeLast=0;collapsible=1;marginBottom=0;rounded=0;shadow=0;strokeWidth=1;" parent="WIyWlLk6GJQsqaUBKTNV-1" vertex="1">
          <mxGeometry x="1002" y="288" width="160" height="200" as="geometry">
            <mxRectangle x="550" y="140" width="160" height="26" as="alternateBounds" />
          </mxGeometry>
        </mxCell>
        <mxCell id="zkfFHV4jXpPFQw0GAbJ--19" value="idSupervisor: String&#xa;&#xa;nome: String&#xa;&#xa;equipe: List&lt;Func&gt;&#xa;&#xa;metaVendas: Float&#xa;&#xa;vendasTotais: Float" style="text;align=left;verticalAlign=top;spacingLeft=4;spacingRight=4;overflow=hidden;rotatable=0;points=[[0,0.5],[1,0.5]];portConstraint=eastwest;rounded=0;shadow=0;html=0;" parent="zkfFHV4jXpPFQw0GAbJ--17" vertex="1">
          <mxGeometry y="26" width="160" height="134" as="geometry" />
        </mxCell>
        <mxCell id="rh4BaJ5fhz4-DXqiOFQ8-2" value="&lt;font style=&quot;vertical-align: inherit;&quot;&gt;&lt;font style=&quot;vertical-align: inherit;&quot;&gt;Sistema&lt;/font&gt;&lt;/font&gt;" style="swimlane;fontStyle=0;childLayout=stackLayout;horizontal=1;startSize=30;horizontalStack=0;resizeParent=1;resizeParentMax=0;resizeLast=0;collapsible=1;marginBottom=0;whiteSpace=wrap;html=1;" vertex="1" parent="WIyWlLk6GJQsqaUBKTNV-1">
          <mxGeometry x="722" y="740" width="140" height="120" as="geometry" />
        </mxCell>
        <mxCell id="rh4BaJ5fhz4-DXqiOFQ8-3" value="idSistema: String" style="text;strokeColor=none;fillColor=none;align=left;verticalAlign=middle;spacingLeft=4;spacingRight=4;overflow=hidden;points=[[0,0.5],[1,0.5]];portConstraint=eastwest;rotatable=0;whiteSpace=wrap;html=1;" vertex="1" parent="rh4BaJ5fhz4-DXqiOFQ8-2">
          <mxGeometry y="30" width="140" height="30" as="geometry" />
        </mxCell>
        <mxCell id="rh4BaJ5fhz4-DXqiOFQ8-4" value="nomeSisteme: String" style="text;strokeColor=none;fillColor=none;align=left;verticalAlign=middle;spacingLeft=4;spacingRight=4;overflow=hidden;points=[[0,0.5],[1,0.5]];portConstraint=eastwest;rotatable=0;whiteSpace=wrap;html=1;" vertex="1" parent="rh4BaJ5fhz4-DXqiOFQ8-2">
          <mxGeometry y="60" width="140" height="30" as="geometry" />
        </mxCell>
        <mxCell id="rh4BaJ5fhz4-DXqiOFQ8-5" value="versão: String" style="text;strokeColor=none;fillColor=none;align=left;verticalAlign=middle;spacingLeft=4;spacingRight=4;overflow=hidden;points=[[0,0.5],[1,0.5]];portConstraint=eastwest;rotatable=0;whiteSpace=wrap;html=1;" vertex="1" parent="rh4BaJ5fhz4-DXqiOFQ8-2">
          <mxGeometry y="90" width="140" height="30" as="geometry" />
        </mxCell>
        <mxCell id="rh4BaJ5fhz4-DXqiOFQ8-68" style="edgeStyle=orthogonalEdgeStyle;rounded=0;orthogonalLoop=1;jettySize=auto;html=1;entryX=1;entryY=0.5;entryDx=0;entryDy=0;" edge="1" parent="WIyWlLk6GJQsqaUBKTNV-1" source="rh4BaJ5fhz4-DXqiOFQ8-7" target="rh4BaJ5fhz4-DXqiOFQ8-25">
          <mxGeometry relative="1" as="geometry">
            <Array as="points">
              <mxPoint x="1182" y="710" />
              <mxPoint x="922" y="710" />
              <mxPoint x="922" y="555" />
            </Array>
          </mxGeometry>
        </mxCell>
        <mxCell id="rh4BaJ5fhz4-DXqiOFQ8-7" value="&lt;font style=&quot;vertical-align: inherit;&quot;&gt;&lt;font style=&quot;vertical-align: inherit;&quot;&gt;Segurança - T.I&lt;/font&gt;&lt;/font&gt;" style="swimlane;fontStyle=0;childLayout=stackLayout;horizontal=1;startSize=30;horizontalStack=0;resizeParent=1;resizeParentMax=0;resizeLast=0;collapsible=1;marginBottom=0;whiteSpace=wrap;html=1;" vertex="1" parent="WIyWlLk6GJQsqaUBKTNV-1">
          <mxGeometry x="1112" y="500" width="158" height="180" as="geometry" />
        </mxCell>
        <mxCell id="rh4BaJ5fhz4-DXqiOFQ8-8" value="- nome: String&amp;nbsp;&lt;div&gt;&lt;br&gt;- idFuncionario: String&amp;nbsp;&lt;/div&gt;&lt;div&gt;&lt;br&gt;&lt;div&gt;- cargo: String&amp;nbsp;&lt;/div&gt;&lt;div&gt;&lt;br&gt;- areaAtuacao: String&lt;/div&gt;&lt;div&gt;&amp;nbsp;&lt;br&gt;-certificacoes:List&amp;lt;String&amp;gt;&lt;/div&gt;&lt;/div&gt;" style="text;strokeColor=none;fillColor=none;align=left;verticalAlign=middle;spacingLeft=4;spacingRight=4;overflow=hidden;points=[[0,0.5],[1,0.5]];portConstraint=eastwest;rotatable=0;whiteSpace=wrap;html=1;" vertex="1" parent="rh4BaJ5fhz4-DXqiOFQ8-7">
          <mxGeometry y="30" width="158" height="150" as="geometry" />
        </mxCell>
        <mxCell id="rh4BaJ5fhz4-DXqiOFQ8-11" value="&lt;font style=&quot;vertical-align: inherit;&quot;&gt;&lt;font style=&quot;vertical-align: inherit;&quot;&gt;T.I&lt;/font&gt;&lt;/font&gt;" style="swimlane;fontStyle=0;childLayout=stackLayout;horizontal=1;startSize=30;horizontalStack=0;resizeParent=1;resizeParentMax=0;resizeLast=0;collapsible=1;marginBottom=0;whiteSpace=wrap;html=1;" vertex="1" parent="WIyWlLk6GJQsqaUBKTNV-1">
          <mxGeometry x="942" y="500" width="158" height="180" as="geometry" />
        </mxCell>
        <mxCell id="rh4BaJ5fhz4-DXqiOFQ8-12" value="- nome: String&lt;div&gt;&amp;nbsp;&lt;br&gt;- idFuncionario: String&amp;nbsp;&lt;/div&gt;&lt;div&gt;&lt;br&gt;&lt;div&gt;- cargo: String&amp;nbsp;&lt;/div&gt;&lt;div&gt;&lt;br&gt;- areaAtuacao: String&lt;/div&gt;&lt;div&gt;&amp;nbsp;&lt;br&gt;-certificacoes:List&amp;lt;String&amp;gt;&lt;/div&gt;&lt;/div&gt;" style="text;strokeColor=none;fillColor=none;align=left;verticalAlign=middle;spacingLeft=4;spacingRight=4;overflow=hidden;points=[[0,0.5],[1,0.5]];portConstraint=eastwest;rotatable=0;whiteSpace=wrap;html=1;" vertex="1" parent="rh4BaJ5fhz4-DXqiOFQ8-11">
          <mxGeometry y="30" width="158" height="150" as="geometry" />
        </mxCell>
        <mxCell id="rh4BaJ5fhz4-DXqiOFQ8-15" value="&lt;font style=&quot;vertical-align: inherit;&quot;&gt;&lt;font style=&quot;vertical-align: inherit;&quot;&gt;Vendedor&lt;/font&gt;&lt;/font&gt;" style="swimlane;fontStyle=0;childLayout=stackLayout;horizontal=1;startSize=30;horizontalStack=0;resizeParent=1;resizeParentMax=0;resizeLast=0;collapsible=1;marginBottom=0;whiteSpace=wrap;html=1;" vertex="1" parent="WIyWlLk6GJQsqaUBKTNV-1">
          <mxGeometry x="470" y="620" width="170" height="190" as="geometry" />
        </mxCell>
        <mxCell id="rh4BaJ5fhz4-DXqiOFQ8-93" value="- nome: String&amp;nbsp;&lt;div&gt;&lt;br&gt;- idFuncionario: String&amp;nbsp;&lt;/div&gt;&lt;div&gt;&lt;br&gt;- regiaoVendas: String&lt;/div&gt;&lt;div&gt;&amp;nbsp;&lt;br&gt;- metaVendas: Float&amp;nbsp;&lt;/div&gt;&lt;div&gt;&lt;br&gt;- vendasRealizadas: Float &lt;/div&gt;" style="text;strokeColor=none;fillColor=none;align=left;verticalAlign=middle;spacingLeft=4;spacingRight=4;overflow=hidden;points=[[0,0.5],[1,0.5]];portConstraint=eastwest;rotatable=0;whiteSpace=wrap;html=1;" vertex="1" parent="rh4BaJ5fhz4-DXqiOFQ8-15">
          <mxGeometry y="30" width="170" height="160" as="geometry" />
        </mxCell>
        <mxCell id="rh4BaJ5fhz4-DXqiOFQ8-69" style="edgeStyle=orthogonalEdgeStyle;rounded=0;orthogonalLoop=1;jettySize=auto;html=1;entryX=0;entryY=0.5;entryDx=0;entryDy=0;" edge="1" parent="WIyWlLk6GJQsqaUBKTNV-1" source="rh4BaJ5fhz4-DXqiOFQ8-19" target="rh4BaJ5fhz4-DXqiOFQ8-24">
          <mxGeometry relative="1" as="geometry">
            <Array as="points">
              <mxPoint x="330" y="600" />
              <mxPoint x="670" y="600" />
              <mxPoint x="670" y="525" />
            </Array>
          </mxGeometry>
        </mxCell>
        <mxCell id="rh4BaJ5fhz4-DXqiOFQ8-19" value="&lt;font style=&quot;vertical-align: inherit;&quot;&gt;&lt;font style=&quot;vertical-align: inherit;&quot;&gt;Marketing&lt;/font&gt;&lt;/font&gt;" style="swimlane;fontStyle=0;childLayout=stackLayout;horizontal=1;startSize=30;horizontalStack=0;resizeParent=1;resizeParentMax=0;resizeLast=0;collapsible=1;marginBottom=0;whiteSpace=wrap;html=1;" vertex="1" parent="WIyWlLk6GJQsqaUBKTNV-1">
          <mxGeometry x="230" y="620" width="220" height="190" as="geometry" />
        </mxCell>
        <mxCell id="rh4BaJ5fhz4-DXqiOFQ8-20" value="&amp;nbsp;-&amp;nbsp; nomeDepartamento: String&amp;nbsp;&lt;div&gt;&lt;br&gt;&amp;nbsp;- orcamento: Float&amp;nbsp;&lt;/div&gt;&lt;div&gt;&lt;br&gt;&amp;nbsp;- equipe: List&amp;lt;Funcionario&amp;gt;&lt;/div&gt;&lt;div&gt;&amp;nbsp;&lt;br&gt;&amp;nbsp;-campanhasAtuais:List&amp;lt;Campanha&amp;gt;&lt;/div&gt;&lt;div&gt;&amp;nbsp;&lt;br&gt;&amp;nbsp;- metaVendas: Float   &lt;/div&gt;" style="text;strokeColor=none;fillColor=none;align=left;verticalAlign=middle;spacingLeft=4;spacingRight=4;overflow=hidden;points=[[0,0.5],[1,0.5]];portConstraint=eastwest;rotatable=0;whiteSpace=wrap;html=1;" vertex="1" parent="rh4BaJ5fhz4-DXqiOFQ8-19">
          <mxGeometry y="30" width="220" height="160" as="geometry" />
        </mxCell>
        <mxCell id="rh4BaJ5fhz4-DXqiOFQ8-47" style="edgeStyle=orthogonalEdgeStyle;rounded=0;orthogonalLoop=1;jettySize=auto;html=1;entryX=0.5;entryY=0;entryDx=0;entryDy=0;" edge="1" parent="WIyWlLk6GJQsqaUBKTNV-1" source="rh4BaJ5fhz4-DXqiOFQ8-54" target="rh4BaJ5fhz4-DXqiOFQ8-2">
          <mxGeometry relative="1" as="geometry" />
        </mxCell>
        <mxCell id="rh4BaJ5fhz4-DXqiOFQ8-23" value="&lt;font style=&quot;vertical-align: inherit;&quot;&gt;&lt;font style=&quot;vertical-align: inherit;&quot;&gt;&lt;font style=&quot;vertical-align: inherit;&quot;&gt;&lt;font style=&quot;vertical-align: inherit;&quot;&gt;&lt;font style=&quot;vertical-align: inherit;&quot;&gt;&lt;font style=&quot;vertical-align: inherit;&quot;&gt;Funcionarios&lt;/font&gt;&lt;/font&gt;&lt;/font&gt;&lt;/font&gt;&lt;/font&gt;&lt;/font&gt;" style="swimlane;fontStyle=0;childLayout=stackLayout;horizontal=1;startSize=30;horizontalStack=0;resizeParent=1;resizeParentMax=0;resizeLast=0;collapsible=1;marginBottom=0;whiteSpace=wrap;html=1;" vertex="1" parent="WIyWlLk6GJQsqaUBKTNV-1">
          <mxGeometry x="719" y="480" width="140" height="120" as="geometry" />
        </mxCell>
        <mxCell id="rh4BaJ5fhz4-DXqiOFQ8-24" value="idFuncionario: String&amp;nbsp;" style="text;strokeColor=none;fillColor=none;align=left;verticalAlign=middle;spacingLeft=4;spacingRight=4;overflow=hidden;points=[[0,0.5],[1,0.5]];portConstraint=eastwest;rotatable=0;whiteSpace=wrap;html=1;" vertex="1" parent="rh4BaJ5fhz4-DXqiOFQ8-23">
          <mxGeometry y="30" width="140" height="30" as="geometry" />
        </mxCell>
        <mxCell id="rh4BaJ5fhz4-DXqiOFQ8-25" value="cargo: String" style="text;strokeColor=none;fillColor=none;align=left;verticalAlign=middle;spacingLeft=4;spacingRight=4;overflow=hidden;points=[[0,0.5],[1,0.5]];portConstraint=eastwest;rotatable=0;whiteSpace=wrap;html=1;" vertex="1" parent="rh4BaJ5fhz4-DXqiOFQ8-23">
          <mxGeometry y="60" width="140" height="30" as="geometry" />
        </mxCell>
        <mxCell id="rh4BaJ5fhz4-DXqiOFQ8-26" value="salario: Float" style="text;strokeColor=none;fillColor=none;align=left;verticalAlign=middle;spacingLeft=4;spacingRight=4;overflow=hidden;points=[[0,0.5],[1,0.5]];portConstraint=eastwest;rotatable=0;whiteSpace=wrap;html=1;" vertex="1" parent="rh4BaJ5fhz4-DXqiOFQ8-23">
          <mxGeometry y="90" width="140" height="30" as="geometry" />
        </mxCell>
        <mxCell id="rh4BaJ5fhz4-DXqiOFQ8-43" value="" style="endArrow=none;html=1;rounded=0;entryX=0.75;entryY=1;entryDx=0;entryDy=0;" edge="1" parent="WIyWlLk6GJQsqaUBKTNV-1" target="zkfFHV4jXpPFQw0GAbJ--17">
          <mxGeometry width="50" height="50" relative="1" as="geometry">
            <mxPoint x="1182" y="500" as="sourcePoint" />
            <mxPoint x="1232" y="450" as="targetPoint" />
          </mxGeometry>
        </mxCell>
        <mxCell id="rh4BaJ5fhz4-DXqiOFQ8-46" value="" style="endArrow=none;html=1;rounded=0;exitX=0.5;exitY=0;exitDx=0;exitDy=0;" edge="1" parent="WIyWlLk6GJQsqaUBKTNV-1" source="zkfFHV4jXpPFQw0GAbJ--6" target="zkfFHV4jXpPFQw0GAbJ--3">
          <mxGeometry width="50" height="50" relative="1" as="geometry">
            <mxPoint x="742" y="298" as="sourcePoint" />
            <mxPoint x="792" y="248" as="targetPoint" />
          </mxGeometry>
        </mxCell>
        <mxCell id="rh4BaJ5fhz4-DXqiOFQ8-56" value="" style="html=1;verticalAlign=bottom;endArrow=block;curved=0;rounded=0;entryX=-0.003;entryY=0.154;entryDx=0;entryDy=0;entryPerimeter=0;exitX=1.003;exitY=0.072;exitDx=0;exitDy=0;exitPerimeter=0;" edge="1" parent="WIyWlLk6GJQsqaUBKTNV-1" source="zkfFHV4jXpPFQw0GAbJ--14" target="rh4BaJ5fhz4-DXqiOFQ8-23">
          <mxGeometry width="80" relative="1" as="geometry">
            <mxPoint x="620" y="440" as="sourcePoint" />
            <mxPoint x="652" y="404.55" as="targetPoint" />
            <Array as="points">
              <mxPoint x="574" y="498" />
              <mxPoint x="662" y="498" />
            </Array>
          </mxGeometry>
        </mxCell>
        <mxCell id="rh4BaJ5fhz4-DXqiOFQ8-57" value="" style="html=1;verticalAlign=bottom;endArrow=block;curved=0;rounded=0;entryX=1.016;entryY=0.178;entryDx=0;entryDy=0;entryPerimeter=0;" edge="1" parent="WIyWlLk6GJQsqaUBKTNV-1" target="rh4BaJ5fhz4-DXqiOFQ8-23">
          <mxGeometry width="80" relative="1" as="geometry">
            <mxPoint x="1000" y="310" as="sourcePoint" />
            <mxPoint x="982" y="434" as="targetPoint" />
            <Array as="points">
              <mxPoint x="960" y="310" />
              <mxPoint x="912" y="311" />
              <mxPoint x="912" y="501" />
            </Array>
          </mxGeometry>
        </mxCell>
        <mxCell id="rh4BaJ5fhz4-DXqiOFQ8-58" value="" style="html=1;verticalAlign=bottom;endArrow=block;curved=0;rounded=0;exitX=0.5;exitY=1;exitDx=0;exitDy=0;entryX=0.5;entryY=0;entryDx=0;entryDy=0;" edge="1" parent="WIyWlLk6GJQsqaUBKTNV-1" target="rh4BaJ5fhz4-DXqiOFQ8-23">
          <mxGeometry width="80" relative="1" as="geometry">
            <mxPoint x="788" y="479" as="sourcePoint" />
            <mxPoint x="839" y="490" as="targetPoint" />
          </mxGeometry>
        </mxCell>
        <mxCell id="rh4BaJ5fhz4-DXqiOFQ8-59" value="" style="triangle;whiteSpace=wrap;html=1;rotation=90;" vertex="1" parent="WIyWlLk6GJQsqaUBKTNV-1">
          <mxGeometry x="787" y="469" width="10" height="10" as="geometry" />
        </mxCell>
        <mxCell id="rh4BaJ5fhz4-DXqiOFQ8-61" value="" style="triangle;whiteSpace=wrap;html=1;rotation=-180;" vertex="1" parent="WIyWlLk6GJQsqaUBKTNV-1">
          <mxGeometry x="861" y="496" width="10" height="10" as="geometry" />
        </mxCell>
        <mxCell id="rh4BaJ5fhz4-DXqiOFQ8-62" value="" style="triangle;whiteSpace=wrap;html=1;rotation=0;" vertex="1" parent="WIyWlLk6GJQsqaUBKTNV-1">
          <mxGeometry x="711" y="493" width="10" height="10" as="geometry" />
        </mxCell>
        <mxCell id="rh4BaJ5fhz4-DXqiOFQ8-66" style="edgeStyle=orthogonalEdgeStyle;rounded=0;orthogonalLoop=1;jettySize=auto;html=1;entryX=0.894;entryY=0.016;entryDx=0;entryDy=0;entryPerimeter=0;" edge="1" parent="WIyWlLk6GJQsqaUBKTNV-1" source="zkfFHV4jXpPFQw0GAbJ--0" target="rh4BaJ5fhz4-DXqiOFQ8-23">
          <mxGeometry relative="1" as="geometry">
            <Array as="points">
              <mxPoint x="902" y="179" />
              <mxPoint x="902" y="460" />
              <mxPoint x="847" y="460" />
            </Array>
          </mxGeometry>
        </mxCell>
        <mxCell id="rh4BaJ5fhz4-DXqiOFQ8-67" style="edgeStyle=orthogonalEdgeStyle;rounded=0;orthogonalLoop=1;jettySize=auto;html=1;entryX=1;entryY=0.5;entryDx=0;entryDy=0;" edge="1" parent="WIyWlLk6GJQsqaUBKTNV-1" source="rh4BaJ5fhz4-DXqiOFQ8-12" target="rh4BaJ5fhz4-DXqiOFQ8-24">
          <mxGeometry relative="1" as="geometry" />
        </mxCell>
        <mxCell id="rh4BaJ5fhz4-DXqiOFQ8-70" style="edgeStyle=orthogonalEdgeStyle;rounded=0;orthogonalLoop=1;jettySize=auto;html=1;entryX=0.005;entryY=-0.078;entryDx=0;entryDy=0;entryPerimeter=0;" edge="1" parent="WIyWlLk6GJQsqaUBKTNV-1" source="rh4BaJ5fhz4-DXqiOFQ8-15" target="rh4BaJ5fhz4-DXqiOFQ8-26">
          <mxGeometry relative="1" as="geometry">
            <Array as="points">
              <mxPoint x="702" y="568" />
            </Array>
          </mxGeometry>
        </mxCell>
        <mxCell id="rh4BaJ5fhz4-DXqiOFQ8-71" value="" style="triangle;whiteSpace=wrap;html=1;rotation=120;" vertex="1" parent="WIyWlLk6GJQsqaUBKTNV-1">
          <mxGeometry x="1008" y="491" width="10" height="10" as="geometry" />
        </mxCell>
        <mxCell id="rh4BaJ5fhz4-DXqiOFQ8-73" value="" style="triangle;whiteSpace=wrap;html=1;rotation=54;" vertex="1" parent="WIyWlLk6GJQsqaUBKTNV-1">
          <mxGeometry x="1172" y="491" width="10" height="10" as="geometry" />
        </mxCell>
        <mxCell id="rh4BaJ5fhz4-DXqiOFQ8-74" value="" style="triangle;whiteSpace=wrap;html=1;rotation=90;" vertex="1" parent="WIyWlLk6GJQsqaUBKTNV-1">
          <mxGeometry x="786" y="257" width="10" height="10" as="geometry" />
        </mxCell>
        <mxCell id="rh4BaJ5fhz4-DXqiOFQ8-80" value="" style="triangle;whiteSpace=wrap;html=1;rotation=-180;" vertex="1" parent="WIyWlLk6GJQsqaUBKTNV-1">
          <mxGeometry x="859" y="520" width="10" height="10" as="geometry" />
        </mxCell>
        <mxCell id="rh4BaJ5fhz4-DXqiOFQ8-81" value="" style="triangle;whiteSpace=wrap;html=1;rotation=-180;" vertex="1" parent="WIyWlLk6GJQsqaUBKTNV-1">
          <mxGeometry x="859" y="550" width="10" height="10" as="geometry" />
        </mxCell>
        <mxCell id="rh4BaJ5fhz4-DXqiOFQ8-82" value="" style="triangle;whiteSpace=wrap;html=1;rotation=90;" vertex="1" parent="WIyWlLk6GJQsqaUBKTNV-1">
          <mxGeometry x="842" y="471" width="10" height="10" as="geometry" />
        </mxCell>
        <mxCell id="rh4BaJ5fhz4-DXqiOFQ8-83" value="" style="triangle;whiteSpace=wrap;html=1;rotation=0;" vertex="1" parent="WIyWlLk6GJQsqaUBKTNV-1">
          <mxGeometry x="711" y="520" width="10" height="10" as="geometry" />
        </mxCell>
        <mxCell id="rh4BaJ5fhz4-DXqiOFQ8-84" value="" style="triangle;whiteSpace=wrap;html=1;rotation=0;" vertex="1" parent="WIyWlLk6GJQsqaUBKTNV-1">
          <mxGeometry x="712" y="563" width="10" height="10" as="geometry" />
        </mxCell>
        <mxCell id="rh4BaJ5fhz4-DXqiOFQ8-102" style="edgeStyle=orthogonalEdgeStyle;rounded=0;orthogonalLoop=1;jettySize=auto;html=1;exitX=0;exitY=0.5;exitDx=0;exitDy=0;" edge="1" parent="WIyWlLk6GJQsqaUBKTNV-1" source="rh4BaJ5fhz4-DXqiOFQ8-100" target="zkfFHV4jXpPFQw0GAbJ--13">
          <mxGeometry relative="1" as="geometry">
            <mxPoint x="500" y="380" as="targetPoint" />
            <Array as="points">
              <mxPoint x="494" y="324" />
            </Array>
          </mxGeometry>
        </mxCell>
        <mxCell id="rh4BaJ5fhz4-DXqiOFQ8-42" value="" style="endArrow=none;html=1;rounded=0;entryX=0.25;entryY=1;entryDx=0;entryDy=0;exitX=0;exitY=0.75;exitDx=0;exitDy=0;" edge="1" parent="WIyWlLk6GJQsqaUBKTNV-1" source="rh4BaJ5fhz4-DXqiOFQ8-71" target="zkfFHV4jXpPFQw0GAbJ--17">
          <mxGeometry width="50" height="50" relative="1" as="geometry">
            <mxPoint x="1012" y="468" as="sourcePoint" />
            <mxPoint x="1062" y="418" as="targetPoint" />
          </mxGeometry>
        </mxCell>
        <mxCell id="rh4BaJ5fhz4-DXqiOFQ8-103" value="" style="triangle;whiteSpace=wrap;html=1;rotation=90;" vertex="1" parent="WIyWlLk6GJQsqaUBKTNV-1">
          <mxGeometry x="489" y="374" width="10" height="10" as="geometry" />
        </mxCell>
        <mxCell id="rh4BaJ5fhz4-DXqiOFQ8-105" value="" style="endArrow=none;html=1;rounded=0;entryX=0.5;entryY=1;entryDx=0;entryDy=0;" edge="1" parent="WIyWlLk6GJQsqaUBKTNV-1" source="rh4BaJ5fhz4-DXqiOFQ8-15" target="zkfFHV4jXpPFQw0GAbJ--13">
          <mxGeometry width="50" height="50" relative="1" as="geometry">
            <mxPoint x="480" y="650" as="sourcePoint" />
            <mxPoint x="530" y="600" as="targetPoint" />
          </mxGeometry>
        </mxCell>
        <mxCell id="rh4BaJ5fhz4-DXqiOFQ8-106" value="" style="triangle;whiteSpace=wrap;html=1;rotation=-210;" vertex="1" parent="WIyWlLk6GJQsqaUBKTNV-1">
          <mxGeometry x="389" y="612" width="10" height="10" as="geometry" />
        </mxCell>
        <mxCell id="rh4BaJ5fhz4-DXqiOFQ8-107" value="" style="triangle;whiteSpace=wrap;html=1;rotation=59;" vertex="1" parent="WIyWlLk6GJQsqaUBKTNV-1">
          <mxGeometry x="502" y="610" width="10" height="10" as="geometry" />
        </mxCell>
        <mxCell id="rh4BaJ5fhz4-DXqiOFQ8-110" value="1" style="text;html=1;align=center;verticalAlign=middle;whiteSpace=wrap;rounded=0;" vertex="1" parent="WIyWlLk6GJQsqaUBKTNV-1">
          <mxGeometry x="662" y="290" width="60" height="30" as="geometry" />
        </mxCell>
        <mxCell id="rh4BaJ5fhz4-DXqiOFQ8-112" value="&lt;font style=&quot;font-size: 24px;&quot;&gt;*&lt;/font&gt;" style="text;html=1;align=center;verticalAlign=middle;whiteSpace=wrap;rounded=0;strokeWidth=3;" vertex="1" parent="WIyWlLk6GJQsqaUBKTNV-1">
          <mxGeometry x="460" y="356" width="111" height="26" as="geometry" />
        </mxCell>
        <mxCell id="rh4BaJ5fhz4-DXqiOFQ8-114" value="1" style="text;html=1;align=center;verticalAlign=middle;whiteSpace=wrap;rounded=0;" vertex="1" parent="WIyWlLk6GJQsqaUBKTNV-1">
          <mxGeometry x="852" y="267" width="60" height="30" as="geometry" />
        </mxCell>
        <mxCell id="rh4BaJ5fhz4-DXqiOFQ8-116" value="1" style="text;html=1;align=center;verticalAlign=middle;whiteSpace=wrap;rounded=0;" vertex="1" parent="WIyWlLk6GJQsqaUBKTNV-1">
          <mxGeometry x="742" y="220" width="60" height="30" as="geometry" />
        </mxCell>
        <mxCell id="rh4BaJ5fhz4-DXqiOFQ8-118" value="1" style="text;html=1;align=center;verticalAlign=middle;whiteSpace=wrap;rounded=0;" vertex="1" parent="WIyWlLk6GJQsqaUBKTNV-1">
          <mxGeometry x="740" y="237" width="160" height="30" as="geometry" />
        </mxCell>
        <mxCell id="rh4BaJ5fhz4-DXqiOFQ8-120" style="edgeStyle=orthogonalEdgeStyle;rounded=0;orthogonalLoop=1;jettySize=auto;html=1;exitX=1;exitY=0.5;exitDx=0;exitDy=0;entryX=0.5;entryY=0;entryDx=0;entryDy=0;" edge="1" parent="WIyWlLk6GJQsqaUBKTNV-1" source="rh4BaJ5fhz4-DXqiOFQ8-100" target="zkfFHV4jXpPFQw0GAbJ--17">
          <mxGeometry relative="1" as="geometry">
            <Array as="points">
              <mxPoint x="871" y="270" />
              <mxPoint x="1082" y="270" />
            </Array>
          </mxGeometry>
        </mxCell>
        <mxCell id="rh4BaJ5fhz4-DXqiOFQ8-123" value="&lt;span style=&quot;color: rgb(0, 0, 0); font-family: Helvetica; font-size: 24px; font-style: normal; font-variant-ligatures: normal; font-variant-caps: normal; font-weight: 400; letter-spacing: normal; orphans: 2; text-align: center; text-indent: 0px; text-transform: none; widows: 2; word-spacing: 0px; -webkit-text-stroke-width: 0px; white-space: normal; background-color: rgb(251, 251, 251); text-decoration-thickness: initial; text-decoration-style: initial; text-decoration-color: initial; display: inline !important; float: none;&quot;&gt;*&lt;/span&gt;" style="text;whiteSpace=wrap;html=1;" vertex="1" parent="WIyWlLk6GJQsqaUBKTNV-1">
          <mxGeometry x="1100" y="247" width="40" height="50" as="geometry" />
        </mxCell>
        <mxCell id="rh4BaJ5fhz4-DXqiOFQ8-124" value="" style="edgeStyle=orthogonalEdgeStyle;rounded=0;orthogonalLoop=1;jettySize=auto;html=1;entryX=0.5;entryY=0;entryDx=0;entryDy=0;" edge="1" parent="WIyWlLk6GJQsqaUBKTNV-1" source="rh4BaJ5fhz4-DXqiOFQ8-23" target="rh4BaJ5fhz4-DXqiOFQ8-54">
          <mxGeometry relative="1" as="geometry">
            <mxPoint x="792" y="600" as="sourcePoint" />
            <mxPoint x="792" y="740" as="targetPoint" />
            <Array as="points">
              <mxPoint x="789" y="630" />
              <mxPoint x="791" y="630" />
            </Array>
          </mxGeometry>
        </mxCell>
        <mxCell id="rh4BaJ5fhz4-DXqiOFQ8-54" value="" style="rhombus;whiteSpace=wrap;html=1;" vertex="1" parent="WIyWlLk6GJQsqaUBKTNV-1">
          <mxGeometry x="781" y="660" width="20" height="20" as="geometry" />
        </mxCell>
        <mxCell id="rh4BaJ5fhz4-DXqiOFQ8-126" value="&lt;span style=&quot;color: rgb(0, 0, 0); font-family: Helvetica; font-size: 12px; font-style: normal; font-variant-ligatures: normal; font-variant-caps: normal; font-weight: 400; letter-spacing: normal; orphans: 2; text-align: center; text-indent: 0px; text-transform: none; widows: 2; word-spacing: 0px; -webkit-text-stroke-width: 0px; white-space: normal; background-color: rgb(251, 251, 251); text-decoration-thickness: initial; text-decoration-style: initial; text-decoration-color: initial; display: inline !important; float: none;&quot;&gt;1&lt;/span&gt;" style="text;whiteSpace=wrap;html=1;" vertex="1" parent="WIyWlLk6GJQsqaUBKTNV-1">
          <mxGeometry x="982" y="316" width="20" height="40" as="geometry" />
        </mxCell>
        <mxCell id="rh4BaJ5fhz4-DXqiOFQ8-129" value="&lt;font style=&quot;font-size: 24px;&quot;&gt;*&lt;/font&gt;" style="text;html=1;align=center;verticalAlign=middle;whiteSpace=wrap;rounded=0;" vertex="1" parent="WIyWlLk6GJQsqaUBKTNV-1">
          <mxGeometry x="852" y="476" width="60" height="30" as="geometry" />
        </mxCell>
        <mxCell id="rh4BaJ5fhz4-DXqiOFQ8-130" value="&lt;font style=&quot;font-size: 24px;&quot;&gt;*&lt;/font&gt;" style="text;html=1;align=center;verticalAlign=middle;whiteSpace=wrap;rounded=0;" vertex="1" parent="WIyWlLk6GJQsqaUBKTNV-1">
          <mxGeometry x="670" y="476" width="60" height="30" as="geometry" />
        </mxCell>
        <mxCell id="rh4BaJ5fhz4-DXqiOFQ8-131" value="1" style="text;html=1;align=center;verticalAlign=middle;whiteSpace=wrap;rounded=0;" vertex="1" parent="WIyWlLk6GJQsqaUBKTNV-1">
          <mxGeometry x="560" y="470" width="60" height="30" as="geometry" />
        </mxCell>
      </root>
    </mxGraphModel>
  </diagram>
</mxfile>
